<mxfile host="Electron" modified="2024-11-04T13:10:03.368Z" agent="Mozilla/5.0 (Windows NT 10.0; Win64; x64) AppleWebKit/537.36 (KHTML, like Gecko) draw.io/23.1.5 Chrome/120.0.6099.109 Electron/28.1.0 Safari/537.36" etag="fNvIqSzLWuoZ-NOtjtp1" version="23.1.5" type="device">
  <diagram name="Page-1" id="kNPr2RnLPrwRS-I9x5If">
    <mxGraphModel dx="989" dy="582" grid="1" gridSize="10" guides="1" tooltips="1" connect="1" arrows="1" fold="1" page="1" pageScale="1" pageWidth="827" pageHeight="1169" math="0" shadow="0">
      <root>
        <mxCell id="0" />
        <mxCell id="1" parent="0" />
        <mxCell id="1vqhupfZXYNKLFvkHFP_-1" value="Main" style="swimlane;whiteSpace=wrap;html=1;startSize=40;" vertex="1" parent="1">
          <mxGeometry x="320" y="320" width="200" height="200" as="geometry" />
        </mxCell>
        <mxCell id="1vqhupfZXYNKLFvkHFP_-2" value="" style="swimlane;startSize=0;" vertex="1" parent="1vqhupfZXYNKLFvkHFP_-1">
          <mxGeometry y="40" width="200" height="40" as="geometry" />
        </mxCell>
        <mxCell id="1vqhupfZXYNKLFvkHFP_-3" value="" style="swimlane;startSize=0;" vertex="1" parent="1vqhupfZXYNKLFvkHFP_-1">
          <mxGeometry y="80" width="200" height="40" as="geometry" />
        </mxCell>
        <mxCell id="1vqhupfZXYNKLFvkHFP_-4" value="" style="swimlane;startSize=0;" vertex="1" parent="1vqhupfZXYNKLFvkHFP_-1">
          <mxGeometry y="120" width="200" height="40" as="geometry" />
        </mxCell>
        <mxCell id="1vqhupfZXYNKLFvkHFP_-5" value="" style="swimlane;startSize=0;" vertex="1" parent="1vqhupfZXYNKLFvkHFP_-1">
          <mxGeometry y="160" width="200" height="40" as="geometry" />
        </mxCell>
        <mxCell id="1vqhupfZXYNKLFvkHFP_-6" value="." style="swimlane;whiteSpace=wrap;html=1;startSize=40;" vertex="1" parent="1">
          <mxGeometry x="550" y="320" width="200" height="200" as="geometry" />
        </mxCell>
        <mxCell id="1vqhupfZXYNKLFvkHFP_-7" value="" style="swimlane;startSize=0;" vertex="1" parent="1vqhupfZXYNKLFvkHFP_-6">
          <mxGeometry y="40" width="200" height="40" as="geometry" />
        </mxCell>
        <mxCell id="1vqhupfZXYNKLFvkHFP_-8" value="" style="swimlane;startSize=0;" vertex="1" parent="1vqhupfZXYNKLFvkHFP_-6">
          <mxGeometry y="80" width="200" height="40" as="geometry" />
        </mxCell>
        <mxCell id="1vqhupfZXYNKLFvkHFP_-9" value="" style="swimlane;startSize=0;" vertex="1" parent="1vqhupfZXYNKLFvkHFP_-6">
          <mxGeometry y="120" width="200" height="40" as="geometry" />
        </mxCell>
        <mxCell id="1vqhupfZXYNKLFvkHFP_-10" value="" style="swimlane;startSize=0;" vertex="1" parent="1vqhupfZXYNKLFvkHFP_-6">
          <mxGeometry y="160" width="200" height="40" as="geometry" />
        </mxCell>
      </root>
    </mxGraphModel>
  </diagram>
</mxfile>
